<?xml version="1.0" encoding="UTF-8" standalone="no" ?>
<!DOCTYPE svg PUBLIC "-//W3C//DTD SVG 1.1//EN" "http://www.w3.org/Graphics/SVG/1.1/DTD/svg11.dtd">
<svg xmlns="http://www.w3.org/2000/svg" xmlns:xlink="http://www.w3.org/1999/xlink" version="1.1" width="1080" height="1080" viewBox="0 0 1080 1080" xml:space="preserve">
<desc>Created with Fabric.js 5.2.4</desc>
<defs>
</defs>
<rect x="0" y="0" width="100%" height="100%" fill="transparent"></rect>
<g transform="matrix(1 0 0 1 540 540)" id="44ac5a8a-34da-4cde-96b6-6aa0dc9f1264"  >
<rect style="stroke: none; stroke-width: 1; stroke-dasharray: none; stroke-linecap: butt; stroke-dashoffset: 0; stroke-linejoin: miter; stroke-miterlimit: 4; fill: rgb(255,255,255); fill-rule: nonzero; opacity: 1; visibility: hidden;" vector-effect="non-scaling-stroke"  x="-540" y="-540" rx="0" ry="0" width="1080" height="1080" />
</g>
<g transform="matrix(1 0 0 1 540 540)" id="c88547d9-0877-45e5-a797-2240c1c11769"  >
</g>
<g transform="matrix(15.38 0 0 15.38 540 540)" id="bae403ad-5c51-4566-a60e-f3c684171ca7"  >
<circle style="stroke: rgb(0,0,0); stroke-width: 0; stroke-dasharray: none; stroke-linecap: butt; stroke-dashoffset: 0; stroke-linejoin: miter; stroke-miterlimit: 4; fill: rgb(255,255,255); fill-rule: nonzero; opacity: 1;" vector-effect="non-scaling-stroke"  cx="0" cy="0" r="35" />
</g>
<g transform="matrix(1.26 0 0 1.26 540 563.71)"  >
<g style="" vector-effect="non-scaling-stroke"   >
		<g transform="matrix(50 0 0 50 0 -114.5)"  >
<path style="stroke: none; stroke-width: 1; stroke-dasharray: none; stroke-linecap: butt; stroke-dashoffset: 0; stroke-linejoin: miter; stroke-miterlimit: 4; fill: rgb(37,47,62); fill-rule: nonzero; opacity: 1;" vector-effect="non-scaling-stroke"  transform=" translate(-8, -6.71)" d="M 4.51 7.687 C 4.51 7.884 4.529999999999999 8.044 4.568 8.162 C 4.609999999999999 8.279000000000002 4.664 8.407 4.7379999999999995 8.546000000000001 C 4.7616138566073065 8.582723606938666 4.774434379716378 8.625343183760716 4.7749999999999995 8.669 C 4.7749999999999995 8.722000000000001 4.742999999999999 8.776 4.675 8.829 L 4.3389999999999995 9.053 C 4.29866667360172 9.082118108760344 4.250697235748746 9.09880313062225 4.201 9.101 C 4.146999999999999 9.101 4.093999999999999 9.075000000000001 4.0409999999999995 9.027000000000001 C 3.969126279454718 8.94966096775044 3.9048321919636475 8.865609842957426 3.8489999999999993 8.776000000000002 C 3.7895106691167135 8.67341340092537 3.7344598272061003 8.568316339096016 3.6839999999999993 8.461000000000002 C 3.2689999999999992 8.952000000000002 2.7479999999999993 9.198000000000002 2.119999999999999 9.198000000000002 C 1.6729999999999992 9.198000000000002 1.3159999999999992 9.069000000000003 1.0559999999999992 8.813000000000002 C 0.7949999999999992 8.557000000000002 0.6619999999999991 8.215000000000002 0.6619999999999991 7.788000000000002 C 0.6619999999999991 7.334000000000002 0.8219999999999992 6.966000000000002 1.145999999999999 6.688000000000002 C 1.470999999999999 6.410000000000002 1.901999999999999 6.272000000000002 2.4499999999999993 6.272000000000002 C 2.6299999999999994 6.272000000000002 2.8169999999999993 6.288000000000002 3.0139999999999993 6.314000000000002 C 3.2109999999999994 6.341000000000002 3.4139999999999993 6.384000000000002 3.6259999999999994 6.432000000000002 L 3.6259999999999994 6.0420000000000025 C 3.6259999999999994 5.636000000000003 3.5409999999999995 5.353000000000002 3.3759999999999994 5.188000000000002 C 3.2059999999999995 5.022000000000002 2.9179999999999993 4.942000000000002 2.5079999999999996 4.942000000000002 C 2.3219999999999996 4.942000000000002 2.1309999999999993 4.964000000000002 1.9339999999999997 5.012000000000002 C 1.7382727307801609 5.058582019684866 1.546118256389355 5.119068906406146 1.358999999999999 5.193000000000003 C 1.2985879510203304 5.220352690456897 1.2364560529166955 5.243735662861491 1.1729999999999998 5.263000000000003 C 1.1455030762705962 5.272084976610883 1.1169182192022202 5.27746565558846 1.0879999999999999 5.279000000000003 C 1.013 5.279000000000003 0.9759999999999999 5.225000000000002 0.9759999999999999 5.113000000000002 L 0.9759999999999999 4.851000000000003 C 0.9759999999999999 4.766000000000003 0.9859999999999999 4.701000000000002 1.013 4.665000000000003 C 1.0532971430371676 4.615935287782948 1.1047214765643245 4.577195623192489 1.1629999999999998 4.552000000000002 C 1.3479999999999999 4.456000000000002 1.5719999999999998 4.376000000000002 1.8329999999999997 4.312000000000002 C 2.093 4.242000000000002 2.3699999999999997 4.211000000000002 2.663 4.211000000000002 C 3.296 4.211000000000002 3.759 4.355000000000002 4.0569999999999995 4.6430000000000025 C 4.35 4.931000000000003 4.499 5.369000000000002 4.499 5.9570000000000025 L 4.499 7.687000000000003 L 4.5089999999999995 7.687000000000003 z M 2.3489999999999998 8.498000000000001 C 2.5239999999999996 8.498000000000001 2.7049999999999996 8.466000000000001 2.897 8.402000000000001 C 3.0879999999999996 8.338000000000001 3.259 8.22 3.4019999999999997 8.06 C 3.4877488824977574 7.961761488010422 3.5496871638141947 7.845071134812052 3.5829999999999997 7.719 C 3.6149999999999998 7.59 3.6369999999999996 7.436 3.6369999999999996 7.2540000000000004 L 3.6369999999999996 7.03 C 3.475484209948956 6.990832265954105 3.311892253967326 6.96078476383503 3.1470000000000007 6.94 C 2.98118781748889 6.9185507625190015 2.8141929116683535 6.907529098734845 2.6469999999999976 6.907 C 2.289999999999999 6.907 2.0289999999999995 6.977 1.8539999999999992 7.121 C 1.6779999999999993 7.265000000000001 1.5939999999999992 7.468 1.5939999999999992 7.735 C 1.5939999999999992 7.985 1.6569999999999991 8.172 1.7899999999999991 8.301 C 1.9179999999999993 8.434000000000001 2.103999999999999 8.498 2.3489999999999993 8.498 z M 6.622 9.075000000000001 C 6.526 9.075000000000001 6.462 9.059000000000001 6.42 9.021 C 6.377 8.989 6.34 8.915000000000001 6.308 8.813 L 5.058 4.686000000000001 C 5.033346440757097 4.61683056763836 5.016900494473568 4.5450054144817225 5.0089999999999995 4.472 C 5.0089999999999995 4.3870000000000005 5.052 4.339 5.137 4.339 L 5.659 4.339 C 5.7589999999999995 4.339 5.829 4.355 5.866 4.392 C 5.909 4.424 5.941 4.4990000000000006 5.973 4.6000000000000005 L 6.867 8.135000000000002 L 7.697 4.600000000000001 C 7.723 4.4940000000000015 7.755 4.424000000000001 7.797 4.392000000000001 C 7.861165075554403 4.35269746761999 7.935908903459204 4.334186145755717 8.011 4.339000000000001 L 8.436 4.339000000000001 C 8.538 4.339000000000001 8.606 4.355000000000001 8.649 4.392000000000001 C 8.691999999999998 4.424000000000001 8.729 4.499000000000001 8.75 4.600000000000001 L 9.591 8.178 L 10.511 4.600000000000001 C 10.528062193645532 4.522574062862252 10.56493126637101 4.450903342050108 10.617999999999999 4.392000000000001 C 10.67996178937449 4.352730276462036 10.752801314138212 4.334170205248203 10.825999999999999 4.339000000000001 L 11.320999999999998 4.339000000000001 C 11.405999999999999 4.339000000000001 11.453999999999997 4.3820000000000014 11.453999999999997 4.472000000000001 C 11.453999999999997 4.499000000000001 11.447999999999997 4.526000000000002 11.443999999999997 4.558000000000002 C 11.435402447892075 4.603396247872885 11.422683115011022 4.647913912956576 11.405999999999997 4.691000000000002 L 10.122999999999998 8.818000000000001 C 10.090999999999998 8.925 10.053999999999997 8.995000000000001 10.011999999999997 9.027000000000001 C 9.951612344266868 9.065624573922287 9.88056185110209 9.084174702679595 9.808999999999997 9.080000000000002 L 9.351999999999997 9.080000000000002 C 9.250999999999996 9.080000000000002 9.181999999999997 9.064000000000002 9.138999999999998 9.027000000000001 C 9.095999999999998 8.989 9.058999999999997 8.920000000000002 9.037999999999997 8.813 L 8.213 5.37 L 7.392999999999999 8.809000000000001 C 7.366999999999999 8.916 7.334999999999999 8.985000000000001 7.292999999999999 9.022 C 7.249999999999999 9.06 7.174999999999999 9.076 7.079999999999999 9.076 L 6.621999999999999 9.076 z M 13.46 9.219000000000001 C 13.183841879756152 9.219369237917274 12.90860507088757 9.187146392000953 12.64 9.123000000000001 C 12.374 9.059000000000001 12.167 8.989 12.028 8.909 C 11.943 8.861 11.885 8.808 11.863000000000001 8.759 C 11.842671713384785 8.71194871305827 11.832124642995447 8.661254729574033 11.832 8.610000000000001 L 11.832 8.338000000000001 C 11.832 8.226 11.874 8.172 11.954 8.172 C 11.986657566202553 8.172072559114063 12.019084174960593 8.177476993907069 12.05 8.188 C 12.082 8.199 12.13 8.22 12.183 8.242 C 12.363 8.322000000000001 12.561 8.386000000000001 12.768 8.429 C 12.981 8.471 13.188 8.493 13.401 8.493 C 13.737 8.493 13.997 8.434000000000001 14.177999999999999 8.317 C 14.35501228298115 8.209842436123132 14.460797477299083 8.015839263872193 14.454999999999998 7.809 C 14.4586288452074 7.67044423076483 14.406792354955485 7.536173321987299 14.310999999999998 7.436 C 14.215999999999998 7.334 14.034999999999998 7.243 13.773999999999997 7.1579999999999995 L 13.001999999999997 6.917999999999999 C 12.613999999999997 6.794999999999999 12.325999999999997 6.6129999999999995 12.150999999999996 6.372999999999999 C 11.979686445377855 6.151241370153099 11.886201391269491 5.879220949552073 11.884999999999996 5.598999999999999 C 11.884999999999996 5.374999999999999 11.932999999999996 5.177 12.027999999999997 5.005999999999999 C 12.123999999999997 4.835999999999999 12.251999999999997 4.685999999999999 12.411999999999997 4.568 C 12.571999999999997 4.446 12.751999999999997 4.3549999999999995 12.964999999999998 4.2909999999999995 C 13.177999999999997 4.226999999999999 13.400999999999998 4.199999999999999 13.634999999999998 4.199999999999999 C 13.752999999999998 4.199999999999999 13.874999999999998 4.204999999999999 13.991999999999997 4.220999999999999 C 14.113999999999997 4.236999999999999 14.225999999999997 4.2589999999999995 14.337999999999997 4.280999999999999 C 14.443999999999997 4.306999999999999 14.545999999999998 4.332999999999998 14.640999999999998 4.365999999999999 C 14.736999999999998 4.397999999999999 14.810999999999998 4.429999999999999 14.864999999999998 4.461999999999999 C 14.927791051718025 4.4935317522314815 14.982524281339064 4.53902874935397 15.024999999999999 4.594999999999999 C 15.059230386597987 4.647065867298011 15.075716372538375 4.70880062315989 15.072 4.770999999999999 L 15.072 5.021999999999999 C 15.072 5.1339999999999995 15.03 5.193 14.95 5.193 C 14.87916544870187 5.184911734544633 14.81056848331104 5.163178042539617 14.748 5.129 C 14.426431952167949 4.986423888251601 14.077714624998123 4.915452064326627 13.725999999999997 4.920999999999999 C 13.422999999999998 4.920999999999999 13.183 4.968999999999999 13.017999999999999 5.071 C 12.853 5.170999999999999 12.767999999999999 5.327 12.767999999999999 5.545999999999999 C 12.767999999999999 5.694999999999999 12.821 5.8229999999999995 12.927999999999999 5.924999999999999 C 13.033999999999999 6.025999999999999 13.231 6.126999999999999 13.512999999999998 6.217999999999999 L 14.268999999999998 6.457999999999999 C 14.651999999999997 6.5809999999999995 14.928999999999998 6.751999999999999 15.093999999999998 6.970999999999999 C 15.258999999999997 7.1899999999999995 15.337999999999997 7.440999999999999 15.337999999999997 7.718999999999999 C 15.337999999999997 7.949 15.290999999999997 8.155999999999999 15.199999999999998 8.338 C 15.10578536498701 8.520623775620436 14.973472465791104 8.680899710213415 14.811999999999998 8.808 C 14.646999999999998 8.940999999999999 14.449999999999998 9.038 14.220999999999998 9.107 C 13.980999999999998 9.181999999999999 13.730999999999998 9.219 13.459999999999999 9.219 z" stroke-linecap="round" />
</g>
		<g transform="matrix(50 0 0 50 -35.18 157.54)"  >
<path style="stroke: none; stroke-width: 1; stroke-dasharray: none; stroke-linecap: butt; stroke-dashoffset: 0; stroke-linejoin: miter; stroke-miterlimit: 4; fill: rgb(255,153,0); fill-rule: evenodd; opacity: 1;" vector-effect="non-scaling-stroke"  transform=" translate(-7.3, -12.15)" d="M 14.465 11.813 C 12.715 13.110000000000001 10.171 13.799000000000001 7.984 13.799000000000001 C 4.9190000000000005 13.799000000000001 2.157 12.662 0.07099999999999973 10.772000000000002 C -0.09400000000000028 10.622000000000002 0.05499999999999973 10.419000000000002 0.2509999999999997 10.537000000000003 C 2.508 11.850000000000003 5.2909999999999995 12.646000000000003 8.171 12.646000000000003 C 10.112 12.646000000000003 12.245999999999999 12.240000000000002 14.209999999999999 11.407000000000002 C 14.502999999999998 11.274000000000001 14.752999999999998 11.599000000000002 14.465 11.813000000000002 z" stroke-linecap="round" />
</g>
		<g transform="matrix(50 0 0 50 325.04 133.36)"  >
<path style="stroke: none; stroke-width: 1; stroke-dasharray: none; stroke-linecap: butt; stroke-dashoffset: 0; stroke-linejoin: miter; stroke-miterlimit: 4; fill: rgb(255,153,0); fill-rule: evenodd; opacity: 1;" vector-effect="non-scaling-stroke"  transform=" translate(-14.5, -11.67)" d="M 15.194 10.98 C 14.971 10.693 13.715 10.842 13.146 10.911 C 12.976 10.933 12.949000000000002 10.783 13.103000000000002 10.671 C 14.103000000000002 9.966 15.748000000000001 10.168999999999999 15.939000000000002 10.404 C 16.131 10.644 15.886000000000001 12.294 14.949000000000002 13.084 C 14.806000000000001 13.206999999999999 14.668000000000001 13.144 14.731000000000002 12.984 C 14.944 12.454 15.418000000000001 11.264 15.194 10.981 z" stroke-linecap="round" />
</g>
</g>
</g>
</svg>