<?xml version="1.0" encoding="utf-8"?>
<svg viewBox="115.3878 64.6956 40 40" xmlns="http://www.w3.org/2000/svg">
  <ellipse style="stroke-width: 0px; stroke-opacity: 0; fill: rgb(255, 255, 255);" cx="45.017" cy="232.524" rx="20" ry="20" transform="matrix(1, 0, 0, 1, 90.37082806782165, -147.8284476373858)"/>
  <path d="M 32.905 233.079 C 32.945 235.144 33.193 237.061 33.65 238.829 C 34.106 240.596 34.81 242.136 35.765 243.447 C 36.718 244.757 37.95 245.79 39.459 246.545 C 40.969 247.3 42.816 247.677 44.999 247.677 C 48.219 247.677 50.889 246.833 53.015 245.145 C 55.14 243.455 56.461 240.925 56.977 237.548 L 58.169 237.548 C 57.732 241.123 56.322 243.893 53.939 245.86 C 51.555 247.826 48.615 248.81 45.119 248.81 C 42.736 248.85 40.699 248.472 39.012 247.677 C 37.322 246.883 35.942 245.76 34.87 244.31 C 33.797 242.86 33.003 241.152 32.487 239.186 C 31.971 237.22 31.713 235.106 31.713 232.84 C 31.713 230.298 32.09 228.034 32.845 226.048 C 33.6 224.062 34.593 222.382 35.825 221.012 C 37.053 219.642 38.483 218.602 40.113 217.886 C 41.743 217.17 43.411 216.812 45.119 216.812 C 47.502 216.812 49.559 217.269 51.286 218.182 C 53.014 219.096 54.424 220.308 55.516 221.817 C 56.609 223.327 57.403 225.055 57.9 227.001 C 58.396 228.946 58.605 230.971 58.525 233.078 L 32.906 233.078 L 32.905 233.079 Z M 57.335 231.887 C 57.335 230.02 57.075 228.242 56.56 226.554 C 56.044 224.866 55.28 223.386 54.266 222.114 C 53.253 220.844 51.992 219.841 50.482 219.106 C 48.972 218.371 47.224 218.004 45.238 218.004 C 43.568 218.004 42.01 218.321 40.56 218.957 C 39.11 219.593 37.84 220.517 36.747 221.727 C 35.655 222.939 34.771 224.399 34.095 226.107 C 33.42 227.815 33.023 229.742 32.905 231.887 L 57.335 231.887 Z" style="stroke-width: 4px; stroke-miterlimit: 3.89; stroke-opacity: 0.37;" fill="#353535" transform="matrix(1, 0, 0, 1, 90.37082806782165, -147.8284476373858)"/>
</svg>