<?xml version="1.0" encoding="utf-8"?>
<svg viewBox="230.501 230.501 30 30" xmlns="http://www.w3.org/2000/svg">
  <ellipse style="fill: rgb(255, 255, 255);" cx="245.501" cy="245.501" rx="15" ry="15" transform="matrix(1, 0, 0, 1, 0, -2.842170943040401e-14)"/>
  <path d="M 251.376 256.001 C 251.287 256.048 251.292 256.067 251.381 256.022 C 251.407 256.011 251.431 255.995 251.451 255.975 C 251.451 255.959 251.449 255.961 251.376 256.001 Z M 251.554 255.907 C 251.512 255.94 251.512 255.942 251.563 255.916 C 251.591 255.902 251.615 255.886 251.615 255.881 C 251.615 255.862 251.603 255.867 251.554 255.907 Z M 251.671 255.836 C 251.629 255.869 251.629 255.871 251.68 255.845 C 251.708 255.831 251.732 255.815 251.732 255.81 C 251.732 255.791 251.72 255.796 251.671 255.836 Z M 251.788 255.766 C 251.746 255.799 251.746 255.801 251.797 255.775 C 251.825 255.761 251.849 255.745 251.849 255.74 C 251.849 255.721 251.837 255.726 251.788 255.766 Z M 251.95 255.661 C 251.868 255.713 251.842 255.748 251.915 255.708 C 251.967 255.678 252.051 255.614 252.037 255.612 C 252.006 255.625 251.977 255.642 251.95 255.661 Z M 244.777 233.505 C 244.725 233.51 244.561 233.526 244.413 233.538 C 241.005 233.845 237.812 235.684 235.79 238.511 C 234.672 240.063 233.945 241.862 233.672 243.754 C 233.576 244.413 233.564 244.608 233.564 245.502 C 233.564 246.396 233.576 246.59 233.672 247.25 C 234.324 251.756 237.531 255.542 241.88 256.945 C 242.659 257.196 243.48 257.367 244.413 257.47 C 244.777 257.51 246.348 257.51 246.712 257.47 C 248.323 257.292 249.689 256.893 251.035 256.206 C 251.241 256.1 251.281 256.072 251.253 256.049 C 250.595 255.181 249.944 254.307 249.299 253.429 L 247.38 250.837 L 244.976 247.279 C 244.176 246.089 243.369 244.903 242.555 243.723 C 242.546 243.721 242.536 245.302 242.532 247.232 C 242.525 250.612 242.523 250.748 242.48 250.828 C 242.439 250.922 242.366 250.997 242.274 251.041 C 242.199 251.079 242.133 251.086 241.779 251.086 L 241.373 251.086 L 241.265 251.018 C 241.198 250.976 241.144 250.917 241.108 250.847 L 241.059 250.741 L 241.064 246.038 L 241.071 241.333 L 241.144 241.242 C 241.193 241.185 241.252 241.136 241.318 241.099 C 241.414 241.052 241.452 241.047 241.858 241.047 C 242.337 241.047 242.416 241.066 242.541 241.202 C 243.514 242.651 244.479 244.104 245.436 245.563 C 246.994 247.925 249.123 251.15 250.17 252.734 L 252.07 255.612 L 252.166 255.549 C 253.08 254.941 253.909 254.214 254.631 253.386 C 256.143 251.656 257.123 249.526 257.455 247.252 C 257.551 246.593 257.563 246.398 257.563 245.504 C 257.563 244.61 257.551 244.416 257.455 243.756 C 256.803 239.25 253.596 235.464 249.247 234.061 C 248.434 233.803 247.597 233.627 246.749 233.538 C 246.524 233.515 244.973 233.489 244.779 233.508 L 244.777 233.505 Z M 249.689 240.763 C 249.802 240.82 249.887 240.92 249.926 241.04 C 249.945 241.101 249.949 242.405 249.945 245.344 L 249.938 249.562 L 249.194 248.422 L 248.448 247.282 L 248.448 244.216 C 248.448 242.234 248.457 241.12 248.471 241.066 C 248.505 240.94 248.589 240.834 248.703 240.77 C 248.799 240.721 248.834 240.716 249.203 240.716 C 249.55 240.716 249.611 240.721 249.689 240.763 Z" transform="matrix(1, 0, 0, 1, 0, -2.842170943040401e-14)"/>
</svg>